<?xml version="1.0" encoding="UTF-8"?>
<svg width="22px" height="18px" viewBox="0 0 22 18" version="1.1" xmlns="http://www.w3.org/2000/svg" xmlns:xlink="http://www.w3.org/1999/xlink">
    <!-- Generator: Sketch 52.1 (67048) - http://www.bohemiancoding.com/sketch -->
    <title>Shape</title>
    <desc>Created with Sketch.</desc>
    <g id="Symbols" stroke="none" stroke-width="1" fill="none" fill-rule="evenodd">
        <g id="Catégorie/bulletin" transform="translate(-9.000000, -11.000000)" fill="#FFFFFF" fill-rule="nonzero">
            <path d="M23.3,11 C21.1,11 20,12.1245922 20,12.1245922 C20,12.1245922 18.9,11 16.7,11 C14.5,11 9,11 9,11 L9,27.8756328 C9,27.8756328 14.5,27.8756328 16.7,27.8756328 C18.9,27.8756328 20,29 20,29 C20,29 21.1,27.8756328 23.3,27.8756328 C25.5,27.8756328 31,27.8756328 31,27.8756328 L31,11 C31,11 26.6,11 23.3,11 Z M10.1,26.7505906 L10.1,12.1250422 L16.7,12.1250422 C18.66306,12.1250422 19.45,13.1450054 19.45,13.1450054 L19.45,27.3243622 C18.78362,27.0181257 17.86842,26.7505906 16.7,26.7505906 L10.1,26.7505906 Z M29.9,26.7505906 L23.3,26.7505906 C22.13136,26.7505906 21.21638,27.0179007 20.55,27.3243622 L20.55,13.1380302 C20.55,13.1380302 21.3607,12.1250422 23.3,12.1250422 L29.9,12.1250422 L29.9,26.7505906 Z M12.3,15.4997187 L17.8,15.4997187 L17.8,16.6247609 L12.3,16.6247609 L12.3,15.4997187 Z M12.3,18.8752953 L17.8,18.8752953 L17.8,20.0003375 L12.3,20.0003375 L12.3,18.8752953 Z M12.3,22.2504219 L17.8,22.2504219 L17.8,23.3754641 L12.3,23.3754641 L12.3,22.2504219 Z M22.2,15.4997187 L27.7,15.4997187 L27.7,16.6247609 L22.2,16.6247609 L22.2,15.4997187 Z M22.2,18.8752953 L27.7,18.8752953 L27.7,20.0003375 L22.2,20.0003375 L22.2,18.8752953 Z M22.2,22.2504219 L27.7,22.2504219 L27.7,23.3754641 L22.2,23.3754641 L22.2,22.2504219 Z" id="Shape"></path>
        </g>
    </g>
</svg>