<?xml version="1.0" encoding="UTF-8"?>
<svg width="8px" height="16px" viewBox="0 0 8 16" version="1.1" xmlns="http://www.w3.org/2000/svg" xmlns:xlink="http://www.w3.org/1999/xlink">
    <!-- Generator: Sketch 52.2 (67145) - http://www.bohemiancoding.com/sketch -->
    <title>Fill 1</title>
    <desc>Created with Sketch.</desc>
    <g id="Symbols" stroke="none" stroke-width="1" fill="none" fill-rule="evenodd">
        <g id="footer" transform="translate(-616.000000, -201.000000)" fill="#000000">
            <g id="Group-10">
                <g transform="translate(590.000000, 179.000000)">
                    <path d="M28,38 L31,38 L31,30 L33.71875,30 L34,27.25 L31,27.25 L31,25.875 C31,25.458332 31.0625,25.166668 31.1875,25 C31.3125,24.833332 31.61458,24.75 32.09375,24.75 L34,24.75 L34,22 L31.25,22 C29.999994,22 29.145836,22.296872 28.6875,22.890624 C28.229164,23.484378 28,24.395828 28,25.625 L28,27.25 L26,27.25 L26,30 L28,30 L28,38 Z" id="Fill-1"></path>
                </g>
            </g>
        </g>
    </g>
</svg>