<?xml version="1.0" encoding="UTF-8"?>
<svg width="20px" height="18px" viewBox="0 0 20 18" version="1.1" xmlns="http://www.w3.org/2000/svg" xmlns:xlink="http://www.w3.org/1999/xlink">
    <!-- Generator: Sketch 52.1 (67048) - http://www.bohemiancoding.com/sketch -->
    <title>Shape</title>
    <desc>Created with Sketch.</desc>
    <g id="Symbols" stroke="none" stroke-width="1" fill="none" fill-rule="evenodd">
        <g id="Catégorie/brochures" transform="translate(-10.000000, -11.000000)" fill="#FFFFFF" fill-rule="nonzero" stroke="#FFFFFF" stroke-width="0.5">
            <path d="M11.3707424,12.0015076 C11.1599152,12.0204668 10.9990907,12.1897958 11.0000039,12.3918511 L11.0000039,25.2731827 C11.0023359,25.4278053 11.1001012,25.5665398 11.2492936,25.6269389 L16.9190366,27.9445983 C16.9314757,27.9513479 16.9442774,27.9574701 16.9573888,27.9629398 L16.976565,27.9689885 C16.9829039,27.9711551 16.9892979,27.9731719 16.9957411,27.9750373 C17.0144152,27.9825009 17.0336442,27.9886316 17.0532695,27.9933788 C17.0596084,27.9955453 17.0660024,27.9975622 17.0724456,27.9994276 C17.0809663,27.9996817 17.0894932,27.9996817 17.0980138,27.9994276 C17.1022749,27.9994911 17.1065368,27.9994911 17.1107979,27.9994276 C17.1193185,27.9996817 17.1278454,27.9996817 17.1363661,27.9994276 C17.1427572,27.9995705 17.149151,27.9995705 17.1555422,27.9994276 C17.1769822,27.9990128 17.1983549,27.9969903 17.2194626,27.9933788 C17.2237237,27.9934423 17.2279856,27.9934423 17.2322467,27.9933788 C17.23869,27.9915134 17.245084,27.9894965 17.2514229,27.98733 C17.2535535,27.9873459 17.2556843,27.9873459 17.2578149,27.98733 C17.2642581,27.9854646 17.2706521,27.9834477 17.276991,27.9812812 C17.2835031,27.9773567 17.2898977,27.9732575 17.2961672,27.9689885 L17.3345194,27.956891 C17.3388173,27.9549458 17.3430793,27.9529292 17.3473035,27.9508422 L22.8636375,25.6940218 L28.4311078,27.9689885 C28.5565053,28.0197557 28.7001589,28.0076436 28.8142832,27.9366811 C28.9284076,27.8657187 28.9980332,27.7452139 28.9999997,27.6152518 L28.9999997,14.7339125 C29.0002065,14.5770711 28.9020204,14.4353401 28.75071,14.3740645 L23.087359,12.0624988 C23.0709306,12.0532389 23.0538435,12.045087 23.0362227,12.0381027 L23.0234386,12.0319954 C23.0108729,12.0273298 22.9980732,12.0232598 22.9850863,12.0198002 C22.9458007,12.0078968 22.9048555,12.0017263 22.8636375,12.0014978 C22.8615068,12.0014819 22.8593761,12.0014819 22.8572454,12.0014978 C22.8423418,12.000719 22.8274047,12.000719 22.8125011,12.0014978 C22.8039119,12.003271 22.7953847,12.0053079 22.7869329,12.0076051 C22.7717878,12.0108569 22.7568488,12.0149285 22.7421886,12.0198002 C22.7400345,12.021807 22.7379037,12.0238364 22.7357966,12.025888 C22.7250624,12.0275179 22.7144005,12.0295553 22.7038364,12.0319954 L17.1363661,14.3069738 L11.5688958,12.0320032 C11.506523,12.0062964 11.4384227,11.9958159 11.3707424,12.0015076 Z M11.8181855,12.9773674 L16.7272753,14.9839769 L16.7272753,20.9794055 L16.7272753,27.0236418 L11.8181855,25.0170265 L11.8181855,12.9773674 Z M22.4545467,12.9773674 L22.4545467,19.0276916 L22.4545467,25.0170265 L17.5454569,27.0236418 L17.5454569,20.9794055 L17.5454569,14.9839769 L22.4545467,12.9773674 Z M23.2727283,12.9773674 L28.181818,14.9839769 L28.181818,27.0236418 L23.2727283,25.0170265 L23.2727283,19.0276916 L23.2727283,12.9773674 Z" id="Shape"></path>
        </g>
    </g>
</svg>