<?xml version="1.0" encoding="UTF-8"?>
<svg width="21px" height="14px" viewBox="0 0 21 14" version="1.1" xmlns="http://www.w3.org/2000/svg" xmlns:xlink="http://www.w3.org/1999/xlink">
    <!-- Generator: Sketch 52.1 (67048) - http://www.bohemiancoding.com/sketch -->
    <title>Fill 1</title>
    <desc>Created with Sketch.</desc>
    <g id="Symbols" stroke="none" stroke-width="1" fill="none" fill-rule="evenodd">
        <g id="Catégorie/Médias" transform="translate(-10.000000, -13.000000)" fill="#FFFFFF">
            <path d="M20.5000011,16.8181804 L16.5625004,16.8181804 L16.5625004,20.636363 L20.5000011,20.636363 L20.5000011,16.8181804 Z M21.8124999,23.1818174 L21.8124999,24.4545457 L15.2499994,24.4545457 L15.2499994,23.1818174 L21.8124999,23.1818174 Z M21.8124999,15.5454543 L21.8124999,21.9090913 L15.2499994,21.9090913 L15.2499994,15.5454543 L21.8124999,15.5454543 Z M28.3750003,23.1818174 L28.3750003,24.4545457 L23.1250009,24.4545457 L23.1250009,23.1818174 L28.3750003,23.1818174 Z M28.3750003,20.636363 L28.3750003,21.9090913 L23.1250009,21.9090913 L23.1250009,20.636363 L28.3750003,20.636363 Z M28.3750003,18.0909087 L28.3750003,19.363637 L23.1250009,19.363637 L23.1250009,18.0909087 L28.3750003,18.0909087 Z M28.3750003,15.5454543 L28.3750003,16.8181804 L23.1250009,16.8181804 L23.1250009,15.5454543 L28.3750003,15.5454543 Z M12.6249997,25.0909089 L12.6249997,15.5454543 L11.3125001,15.5454543 L11.3125001,25.0909089 C11.3125001,25.2632584 11.3774408,25.4124046 11.5073242,25.5383522 C11.6372077,25.6642998 11.7910147,25.7272726 11.9687501,25.7272726 C12.1464853,25.7272726 12.3002928,25.6642998 12.4301765,25.5383522 C12.5600602,25.4124046 12.6249997,25.2632584 12.6249997,25.0909089 Z M29.6875013,25.0909089 L29.6875013,14.2727261 L13.9375007,14.2727261 L13.9375007,25.0909089 C13.9375007,25.3096601 13.8999032,25.5217793 13.8247081,25.7272726 L29.0312496,25.7272726 C29.2089864,25.7272726 29.3627921,25.6642998 29.4926758,25.5383522 C29.6225594,25.4124046 29.6875013,25.2632584 29.6875013,25.0909089 Z M31,13 L31,25.0909089 C31,25.6212148 30.8085968,26.0719678 30.4257812,26.4431818 C30.042968,26.8143958 29.5781287,27 29.0312496,27 L11.9687501,27 C11.4218722,27 10.9570332,26.8143958 10.5742188,26.4431818 C10.1914043,26.0719678 10,25.6212148 10,25.0909089 L10,14.2727261 L12.6249997,14.2727261 L12.6249997,13 L31,13 Z" id="Fill-1"></path>
        </g>
    </g>
</svg>