<?xml version="1.0" encoding="UTF-8"?>
<svg width="20px" height="19px" viewBox="0 0 20 19" version="1.1" xmlns="http://www.w3.org/2000/svg" xmlns:xlink="http://www.w3.org/1999/xlink">
    <!-- Generator: Sketch 52.1 (67048) - http://www.bohemiancoding.com/sketch -->
    <title>Group 2</title>
    <desc>Created with Sketch.</desc>
    <g id="Symbols" stroke="none" stroke-width="1" fill="none" fill-rule="evenodd">
        <g id="Catégorie/infolettre" transform="translate(-10.000000, -11.000000)" fill="#FFFFFF" fill-rule="nonzero">
            <g id="Group-2">
                <g transform="translate(10.000000, 11.000000)">
                    <polygon id="Shape" points="10.0141379 13.4512963 0.511034483 7.31007407 1.06482759 6.41848148 10.0141379 12.2022222 18.9382759 6.43572222 19.4917241 7.32731481"></polygon>
                    <polygon id="Shape" points="6.34965517 3.53083333 5.82103448 2.62375926 10.0151724 0.0774074074 14.2082759 2.62375926 13.6789655 3.53083333 10.0151724 1.30572222"></polygon>
                    <path d="M18.4827586,18.9225926 L1.54551724,18.9225926 C0.856551724,18.9225926 0.296206897,18.3508333 0.296206897,17.6478333 L0.267586207,5.99555556 L3.41413793,4.085 L3.94275862,4.99207407 L1.30344828,6.59475926 L1.33068966,17.6467778 C1.33068966,17.7688704 1.42689655,17.867037 1.54551724,17.867037 L18.4827586,17.867037 C18.6013793,17.867037 18.697931,17.7688704 18.697931,17.6478333 L18.697931,6.5937037 L16.0827586,4.99031481 L16.6155172,4.0857037 L19.7324138,5.99661111 L19.7324138,17.6481852 C19.7324138,18.3508333 19.1717241,18.9225926 18.4827586,18.9225926 Z" id="Shape"></path>
                    <polygon id="Shape" points="16.8668966 8.73261111 15.8324138 8.73261111 15.8324138 3.60542593 4.19586207 3.60542593 4.19586207 8.73261111 3.16137931 8.73261111 3.16137931 2.54987037 16.8668966 2.54987037"></polygon>
                </g>
            </g>
        </g>
    </g>
</svg>