<?xml version="1.0" encoding="UTF-8"?>
<svg width="17px" height="17px" viewBox="0 0 17 17" version="1.1" xmlns="http://www.w3.org/2000/svg" xmlns:xlink="http://www.w3.org/1999/xlink">
    <!-- Generator: Sketch 52.1 (67048) - http://www.bohemiancoding.com/sketch -->
    <title>Fill 1</title>
    <desc>Created with Sketch.</desc>
    <g id="Symbols" stroke="none" stroke-width="1" fill="none" fill-rule="evenodd">
        <g id="Catégorie/liens" transform="translate(-12.000000, -12.000000)" fill="#FFFFFF">
            <g id="Catégorie/infolettre">
                <path d="M18.2195122,25.4739355 L17.3695135,26.3450809 C16.9963401,26.7046029 16.547158,26.8843613 16.0219512,26.8843613 C15.4967444,26.8843613 15.0475623,26.7046029 14.6743889,26.3450809 C14.4947145,26.165319 14.3565045,25.9613628 14.2597561,25.7332043 C14.1630077,25.5050459 14.1146341,25.2596066 14.1146341,24.9968811 C14.1146341,24.7479798 14.1630077,24.5094539 14.2597561,24.2812954 C14.3565045,24.053137 14.4947145,23.8491808 14.6743889,23.6694215 L17.8256084,20.5374453 C18.1573184,20.2194072 18.5926803,19.9082852 19.1317073,19.6040766 C19.6707344,19.2998654 20.16829,19.3759155 20.6243902,19.8322324 C20.8317073,20.0258211 21.0804852,20.1226142 21.3707317,20.1226142 C21.6609783,20.1226142 21.9028433,20.0189077 22.0963428,19.8114895 C22.3036599,19.604074 22.4073171,19.355178 22.4073171,19.0647935 C22.4073171,18.7744117 22.3036599,18.5255157 22.0963428,18.3180975 C21.3361758,17.5713989 20.4343538,17.2602795 19.390853,17.3847288 C18.3473522,17.5091782 17.3349655,18.0622801 16.3536585,19.0440533 L13.1817073,22.1760295 C12.8085347,22.563207 12.5182937,22.998773 12.3109756,23.4827462 C12.1036575,23.9667194 12,24.4714248 12,24.9968811 C12,25.5361642 12.1036575,26.047783 12.3109756,26.5317549 C12.5182937,27.015727 12.8085347,27.4512951 13.1817073,27.8384729 C13.5687012,28.2256506 14.0109732,28.5160295 14.5085366,28.7096182 C15.0060989,28.903207 15.5105673,29 16.0219512,29 C16.5333351,29 17.0343458,28.903207 17.5249993,28.7096182 C18.0156528,28.5160295 18.4544698,28.2256506 18.8414634,27.8384729 L19.7121951,26.9673275 C19.9195122,26.7737388 20.0231721,26.5317562 20.0231721,26.2413744 C20.0231721,25.95099 19.9195122,25.702094 19.7121951,25.4946784 C19.504878,25.2872602 19.2561002,25.1835538 18.9658537,25.1835538 C18.6756071,25.1835538 18.4268293,25.2803468 18.2195122,25.4739355 Z M27.818294,13.2779008 C26.9890204,12.4620628 26.063013,12.0368642 25.0402426,12.0022945 C24.0174748,11.9677248 23.1260207,12.3237866 22.3658537,13.0704853 L21.2878049,14.1490462 C21.0804878,14.3426349 20.9768279,14.5846175 20.9768279,14.8750019 C20.9768279,15.1653837 21.0804878,15.4142797 21.2878049,15.6216979 C21.495122,15.8291135 21.7438998,15.9328199 22.0341463,15.9328199 C22.3243929,15.9328199 22.5731707,15.8360269 22.7804878,15.6424382 L23.8378062,14.5638773 C24.2386201,14.1766998 24.6705269,14.0315102 25.1335372,14.1283059 C25.5965476,14.225099 25.9939011,14.4394253 26.3256111,14.7712928 C26.505285,14.9510547 26.6434955,15.1550109 26.7402452,15.3831694 C26.8369923,15.6113278 26.8853659,15.8567671 26.8853659,16.1194953 C26.8853659,16.3683939 26.8369923,16.6069198 26.7402452,16.8350783 C26.6434955,17.0632367 26.505285,17.2671929 26.3256111,17.4469548 L22.9670718,20.786344 C22.1930846,21.5468721 21.6056919,21.8614482 21.204878,21.7300854 C20.8040642,21.59872 20.5276432,21.4500737 20.3756098,21.2841413 C20.1682927,21.0905526 19.9195148,20.9937595 19.6292683,20.9937595 C19.3390217,20.9937595 19.0971567,21.097466 18.9036572,21.3048815 C18.6963401,21.5122997 18.5926829,21.7611958 18.5926829,22.0515775 C18.5926829,22.341962 18.6963401,22.5839446 18.9036572,22.7775333 C19.2491874,23.1370545 19.6223555,23.4032367 20.0231721,23.5760825 C20.423986,23.748931 20.8386148,23.835354 21.2670745,23.835354 C21.7784584,23.835354 22.3036546,23.7074479 22.8426843,23.4516332 C23.3817113,23.1958211 23.9138176,22.8051923 24.4390244,22.279736 L27.818294,18.9403468 C28.1914647,18.5531667 28.481706,18.1176007 28.6890231,17.6336275 C28.8963428,17.1496543 29,16.6449489 29,16.1194953 C29,15.5802095 28.8963428,15.0685907 28.6890231,14.5846175 C28.481706,14.100647 28.1914647,13.6650783 27.818294,13.2779008 Z" id="Fill-1"></path>
            </g>
        </g>
    </g>
</svg>